<mxfile host="app.diagrams.net" modified="2023-11-21T06:44:12.013Z" agent="Mozilla/5.0 (Macintosh; Intel Mac OS X 10_15_7) AppleWebKit/537.36 (KHTML, like Gecko) Chrome/119.0.0.0 Safari/537.36" etag="8uTyspqr1rR3JTA59B5I" version="22.1.3" type="github">
  <diagram id="C5RBs43oDa-KdzZeNtuy" name="Page-1">
    <mxGraphModel dx="1343" dy="700" grid="0" gridSize="10" guides="1" tooltips="1" connect="1" arrows="1" fold="1" page="1" pageScale="1" pageWidth="827" pageHeight="1169" math="0" shadow="0">
      <root>
        <mxCell id="WIyWlLk6GJQsqaUBKTNV-0" />
        <mxCell id="WIyWlLk6GJQsqaUBKTNV-1" parent="WIyWlLk6GJQsqaUBKTNV-0" />
        <mxCell id="WIyWlLk6GJQsqaUBKTNV-3" value="商品" style="rounded=1;whiteSpace=wrap;html=1;fontSize=12;glass=0;strokeWidth=1;shadow=0;fillColor=#dae8fc;strokeColor=#6c8ebf;" parent="WIyWlLk6GJQsqaUBKTNV-1" vertex="1">
          <mxGeometry x="90" y="250" width="120" height="40" as="geometry" />
        </mxCell>
        <mxCell id="GHlrc6iiVcrwONo79i8U-0" value="商品&lt;br&gt;优惠券" style="rounded=1;whiteSpace=wrap;html=1;fontSize=12;glass=0;strokeWidth=1;shadow=0;fillColor=#dae8fc;strokeColor=#6c8ebf;" vertex="1" parent="WIyWlLk6GJQsqaUBKTNV-1">
          <mxGeometry x="290" y="251" width="120" height="40" as="geometry" />
        </mxCell>
        <mxCell id="GHlrc6iiVcrwONo79i8U-1" value="admin" style="rounded=1;whiteSpace=wrap;html=1;fontSize=12;glass=0;strokeWidth=1;shadow=0;" vertex="1" parent="WIyWlLk6GJQsqaUBKTNV-1">
          <mxGeometry x="90" y="163" width="120" height="40" as="geometry" />
        </mxCell>
        <mxCell id="GHlrc6iiVcrwONo79i8U-2" value="shop" style="rounded=1;whiteSpace=wrap;html=1;fontSize=12;glass=0;strokeWidth=1;shadow=0;" vertex="1" parent="WIyWlLk6GJQsqaUBKTNV-1">
          <mxGeometry x="290" y="163" width="120" height="40" as="geometry" />
        </mxCell>
        <mxCell id="GHlrc6iiVcrwONo79i8U-3" value="ls_user" style="rounded=1;whiteSpace=wrap;html=1;fontSize=12;glass=0;strokeWidth=1;shadow=0;" vertex="1" parent="WIyWlLk6GJQsqaUBKTNV-1">
          <mxGeometry x="626" y="163" width="120" height="40" as="geometry" />
        </mxCell>
        <mxCell id="GHlrc6iiVcrwONo79i8U-4" value="订单" style="rounded=1;whiteSpace=wrap;html=1;fontSize=12;glass=0;strokeWidth=1;shadow=0;fillColor=#dae8fc;strokeColor=#6c8ebf;" vertex="1" parent="WIyWlLk6GJQsqaUBKTNV-1">
          <mxGeometry x="626" y="250" width="120" height="40" as="geometry" />
        </mxCell>
        <mxCell id="GHlrc6iiVcrwONo79i8U-6" value="goods&lt;br&gt;goods_item&lt;br&gt;goods_category&lt;br&gt;goods_item&lt;br&gt;goods_material&lt;br&gt;goods_material_category&lt;br&gt;goods_spec&lt;br&gt;goods_spec_value" style="rounded=1;whiteSpace=wrap;html=1;fontSize=12;glass=0;strokeWidth=1;shadow=0;" vertex="1" parent="WIyWlLk6GJQsqaUBKTNV-1">
          <mxGeometry x="90" y="500" width="120" height="150" as="geometry" />
        </mxCell>
        <mxCell id="GHlrc6iiVcrwONo79i8U-7" value="shop_goods&lt;br&gt;shop_goods_item&lt;br&gt;shop_material" style="rounded=1;whiteSpace=wrap;html=1;fontSize=12;glass=0;strokeWidth=1;shadow=0;" vertex="1" parent="WIyWlLk6GJQsqaUBKTNV-1">
          <mxGeometry x="290" y="560" width="120" height="90" as="geometry" />
        </mxCell>
        <mxCell id="GHlrc6iiVcrwONo79i8U-8" value="order&lt;br&gt;order_goods&lt;br&gt;&lt;br&gt;order_log&lt;br&gt;order_refund&lt;br&gt;&lt;br&gt;recharge_order" style="rounded=1;whiteSpace=wrap;html=1;fontSize=12;glass=0;strokeWidth=1;shadow=0;" vertex="1" parent="WIyWlLk6GJQsqaUBKTNV-1">
          <mxGeometry x="626" y="500" width="120" height="150" as="geometry" />
        </mxCell>
        <mxCell id="GHlrc6iiVcrwONo79i8U-9" value="goods" style="rounded=1;whiteSpace=wrap;html=1;fontSize=12;glass=0;strokeWidth=1;shadow=0;fillColor=#fff2cc;strokeColor=#d6b656;" vertex="1" parent="WIyWlLk6GJQsqaUBKTNV-1">
          <mxGeometry x="90" y="390" width="120" height="80" as="geometry" />
        </mxCell>
        <mxCell id="GHlrc6iiVcrwONo79i8U-10" value="shop_goods" style="rounded=1;whiteSpace=wrap;html=1;fontSize=12;glass=0;strokeWidth=1;shadow=0;fillColor=#fff2cc;strokeColor=#d6b656;" vertex="1" parent="WIyWlLk6GJQsqaUBKTNV-1">
          <mxGeometry x="290" y="390" width="120" height="80" as="geometry" />
        </mxCell>
        <mxCell id="GHlrc6iiVcrwONo79i8U-11" value="order" style="rounded=1;whiteSpace=wrap;html=1;fontSize=12;glass=0;strokeWidth=1;shadow=0;fillColor=#fff2cc;strokeColor=#d6b656;" vertex="1" parent="WIyWlLk6GJQsqaUBKTNV-1">
          <mxGeometry x="626" y="390" width="120" height="80" as="geometry" />
        </mxCell>
        <mxCell id="GHlrc6iiVcrwONo79i8U-12" value="admin" style="rounded=1;whiteSpace=wrap;html=1;fontSize=12;glass=0;strokeWidth=1;shadow=0;" vertex="1" parent="WIyWlLk6GJQsqaUBKTNV-1">
          <mxGeometry x="90" y="87" width="120" height="40" as="geometry" />
        </mxCell>
        <mxCell id="GHlrc6iiVcrwONo79i8U-14" value="coupon" style="rounded=1;whiteSpace=wrap;html=1;fontSize=12;glass=0;strokeWidth=1;shadow=0;" vertex="1" parent="WIyWlLk6GJQsqaUBKTNV-1">
          <mxGeometry x="290" y="500" width="120" height="50" as="geometry" />
        </mxCell>
        <mxCell id="GHlrc6iiVcrwONo79i8U-15" value="cart" style="rounded=1;whiteSpace=wrap;html=1;fontSize=12;glass=0;strokeWidth=1;shadow=0;fillColor=#fff2cc;strokeColor=#d6b656;" vertex="1" parent="WIyWlLk6GJQsqaUBKTNV-1">
          <mxGeometry x="465" y="390" width="120" height="80" as="geometry" />
        </mxCell>
        <mxCell id="GHlrc6iiVcrwONo79i8U-18" value="" style="endArrow=none;html=1;rounded=0;" edge="1" parent="WIyWlLk6GJQsqaUBKTNV-1">
          <mxGeometry width="50" height="50" relative="1" as="geometry">
            <mxPoint x="79" y="240" as="sourcePoint" />
            <mxPoint x="969" y="240" as="targetPoint" />
          </mxGeometry>
        </mxCell>
        <mxCell id="GHlrc6iiVcrwONo79i8U-19" value="" style="endArrow=none;html=1;rounded=0;" edge="1" parent="WIyWlLk6GJQsqaUBKTNV-1">
          <mxGeometry width="50" height="50" relative="1" as="geometry">
            <mxPoint x="76" y="360" as="sourcePoint" />
            <mxPoint x="966" y="360" as="targetPoint" />
          </mxGeometry>
        </mxCell>
        <mxCell id="GHlrc6iiVcrwONo79i8U-21" value="shop_admin&lt;br&gt;announcement" style="rounded=1;whiteSpace=wrap;html=1;fontSize=12;glass=0;strokeWidth=1;shadow=0;" vertex="1" parent="WIyWlLk6GJQsqaUBKTNV-1">
          <mxGeometry x="294" y="87" width="120" height="40" as="geometry" />
        </mxCell>
        <mxCell id="GHlrc6iiVcrwONo79i8U-22" value="ls_user_address" style="rounded=1;whiteSpace=wrap;html=1;fontSize=12;glass=0;strokeWidth=1;shadow=0;" vertex="1" parent="WIyWlLk6GJQsqaUBKTNV-1">
          <mxGeometry x="626" y="87" width="120" height="40" as="geometry" />
        </mxCell>
        <mxCell id="GHlrc6iiVcrwONo79i8U-23" value="ls_user_auth&lt;br&gt;三方授权的open_id" style="rounded=1;whiteSpace=wrap;html=1;fontSize=12;glass=0;strokeWidth=1;shadow=0;" vertex="1" parent="WIyWlLk6GJQsqaUBKTNV-1">
          <mxGeometry x="626" y="23" width="120" height="40" as="geometry" />
        </mxCell>
        <mxCell id="GHlrc6iiVcrwONo79i8U-24" value="table&lt;br&gt;桌号表" style="rounded=1;whiteSpace=wrap;html=1;fontSize=12;glass=0;strokeWidth=1;shadow=0;" vertex="1" parent="WIyWlLk6GJQsqaUBKTNV-1">
          <mxGeometry x="844" y="514" width="120" height="140" as="geometry" />
        </mxCell>
        <mxCell id="GHlrc6iiVcrwONo79i8U-26" value="ad_position&lt;br&gt;decorate_bottom&lt;br&gt;decorate_home&lt;br&gt;decorate_mine&lt;br&gt;decorate_mine_scan_qr" style="rounded=1;whiteSpace=wrap;html=1;fontSize=12;glass=0;strokeWidth=1;shadow=0;" vertex="1" parent="WIyWlLk6GJQsqaUBKTNV-1">
          <mxGeometry x="1181" width="120" height="80" as="geometry" />
        </mxCell>
        <mxCell id="GHlrc6iiVcrwONo79i8U-27" value="小程序相关页面配置" style="rounded=1;whiteSpace=wrap;html=1;fontSize=12;glass=0;strokeWidth=1;shadow=0;" vertex="1" parent="WIyWlLk6GJQsqaUBKTNV-1">
          <mxGeometry x="1181" y="130" width="120" height="80" as="geometry" />
        </mxCell>
        <mxCell id="GHlrc6iiVcrwONo79i8U-28" value="创建，编辑，上下架商品" style="rounded=1;whiteSpace=wrap;html=1;fontSize=12;glass=0;strokeWidth=1;shadow=0;fillColor=#f5f5f5;strokeColor=#666666;fontColor=#333333;" vertex="1" parent="WIyWlLk6GJQsqaUBKTNV-1">
          <mxGeometry x="90" y="310" width="120" height="40" as="geometry" />
        </mxCell>
        <mxCell id="GHlrc6iiVcrwONo79i8U-29" value="编辑库存，上下架商品，发放优惠券" style="rounded=1;whiteSpace=wrap;html=1;fontSize=12;glass=0;strokeWidth=1;shadow=0;fillColor=#f5f5f5;fontColor=#333333;strokeColor=#666666;" vertex="1" parent="WIyWlLk6GJQsqaUBKTNV-1">
          <mxGeometry x="290" y="310" width="120" height="40" as="geometry" />
        </mxCell>
        <mxCell id="GHlrc6iiVcrwONo79i8U-30" value="购物车" style="rounded=1;whiteSpace=wrap;html=1;fontSize=12;glass=0;strokeWidth=1;shadow=0;fillColor=#dae8fc;strokeColor=#6c8ebf;" vertex="1" parent="WIyWlLk6GJQsqaUBKTNV-1">
          <mxGeometry x="455" y="251" width="120" height="39" as="geometry" />
        </mxCell>
        <mxCell id="GHlrc6iiVcrwONo79i8U-31" value="coupon_list" style="rounded=1;whiteSpace=wrap;html=1;fontSize=12;glass=0;strokeWidth=1;shadow=0;" vertex="1" parent="WIyWlLk6GJQsqaUBKTNV-1">
          <mxGeometry x="465" y="500" width="120" height="150" as="geometry" />
        </mxCell>
      </root>
    </mxGraphModel>
  </diagram>
</mxfile>
